# xmcd
#
# Track frame offsets:
#	150
#	12111
#	34292
#	49570
#	79101
#	109272
#	137593
#	152198
#	177173
#	200511
#
# Disc length: 2839 seconds
#
# Revision: 1
# Processed by: cddbd v1.5.2PL0 Copyright (c) Steve Scherf et al.
# Submitted via: audiograbber 1.83.01
#
DISCID=7c0b150a
DTITLE=Gorilla Rodeo - The Long Way Home
DYEAR=2011
DGENRE=Country
TTITLE0=The Long Way
TTITLE1=Capricorn
TTITLE2=Head in the Noose
TTITLE3=Limbo
TTITLE4=Lonesome Road
TTITLE5=and the Devil May Care
TTITLE6=Hell of a Lady
TTITLE7=Follow the Fool
TTITLE8=The Song of Maybes
TTITLE9=Home
EXTD=
EXTT0=
EXTT1=
EXTT2=
EXTT3=
EXTT4=
EXTT5=
EXTT6=
EXTT7=
EXTT8=
EXTT9=
PLAYORDER=
